<?xml version="1.0" encoding="UTF-8" standalone="no"?>
<!-- Created with Inkscape (http://www.inkscape.org/) -->

<svg
   xmlns:dc="http://purl.org/dc/elements/1.1/"
   xmlns:cc="http://creativecommons.org/ns#"
   xmlns:rdf="http://www.w3.org/1999/02/22-rdf-syntax-ns#"
   xmlns:svg="http://www.w3.org/2000/svg"
   xmlns="http://www.w3.org/2000/svg"
   version="1.1"
   width="97.629356"
   height="109.00354"
   id="svg9297">
  <defs
     id="defs9299" />
  <metadata
     id="metadata9302">
    <rdf:RDF>
      <cc:Work
         rdf:about="">
        <dc:format>image/svg+xml</dc:format>
        <dc:type
           rdf:resource="http://purl.org/dc/dcmitype/StillImage" />
        <dc:title></dc:title>
      </cc:Work>
    </rdf:RDF>
  </metadata>
  <g
     transform="translate(-326.18532,-477.86041)"
     id="layer1">
    <g
       transform="matrix(1.25,0,0,-1.25,341.03406,499.90279)"
       id="g8044">
      <path
         d="M 0,0 C 2.743,0 4.967,2.224 4.967,4.967 4.967,7.711 2.743,9.934 0,9.934 -2.744,9.934 -4.967,7.711 -4.967,4.967 -4.967,2.224 -2.744,0 0,0"
         id="path8046"
         style="fill:#e6b447;fill-opacity:1;fill-rule:nonzero;stroke:none" />
    </g>
    <g
       transform="matrix(1.25,0,0,-1.25,347.89157,501.49279)"
       id="g8048">
      <path
         d="m 0,0 c 3.514,0 6.392,-2.85 6.392,-6.363 l 0,-15.404 c 0,-1.201 -0.944,-2.175 -2.145,-2.175 -1.201,0 -2.176,0.974 -2.176,2.175 l 0,13.889 -1.12,0 0,-38.646 c 0,-1.611 -1.316,-2.915 -2.926,-2.915 -1.61,0 -2.914,1.304 -2.914,2.915 l 0,22.44 -1.195,0 0,-22.44 c 0,-1.611 -1.304,-2.915 -2.914,-2.915 -1.609,0 -2.913,1.304 -2.913,2.915 0,2.382 -0.026,38.646 -0.026,38.646 l -1.107,0 0,-13.889 c 0,-1.201 -0.974,-2.175 -2.175,-2.175 -1.202,0 -2.146,0.974 -2.146,2.175 l 0,15.404 c 0,3.513 2.878,6.363 6.392,6.363 L 0,0 z"
         id="path8050"
         style="fill:#e6b447;fill-opacity:1;fill-rule:nonzero;stroke:none" />
    </g>
    <g
       transform="matrix(1.25,0,0,-1.25,408.96718,499.90279)"
       id="g8052">
      <path
         d="M 0,0 C 2.743,0 4.967,2.224 4.967,4.967 4.967,7.711 2.743,9.934 0,9.934 -2.744,9.934 -4.967,7.711 -4.967,4.967 -4.967,2.224 -2.744,0 0,0"
         id="path8054"
         style="fill:#e6b447;fill-opacity:1;fill-rule:nonzero;stroke:none" />
    </g>
    <g
       transform="matrix(1.25,0,0,-1.25,415.82468,501.49279)"
       id="g8056">
      <path
         d="m 0,0 c 3.514,0 6.392,-2.85 6.392,-6.363 l 0,-15.404 c 0,-1.201 -0.944,-2.175 -2.145,-2.175 -1.201,0 -2.176,0.974 -2.176,2.175 l 0,13.889 -1.12,0 0,-38.646 c 0,-1.611 -1.316,-2.915 -2.926,-2.915 -1.61,0 -2.914,1.304 -2.914,2.915 l 0,22.44 -1.195,0 0,-22.44 c 0,-1.611 -1.304,-2.915 -2.913,-2.915 -1.61,0 -2.914,1.304 -2.914,2.915 0,2.382 -0.026,38.646 -0.026,38.646 l -1.107,0 0,-13.889 c 0,-1.201 -0.974,-2.175 -2.175,-2.175 -1.202,0 -2.146,0.974 -2.146,2.175 l 0,15.404 c 0,3.513 2.878,6.363 6.392,6.363 L 0,0 z"
         id="path8058"
         style="fill:#e6b447;fill-opacity:1;fill-rule:nonzero;stroke:none" />
    </g>
    <g
       transform="matrix(1.25,0,0,-1.25,375.26031,495.73541)"
       id="g8060">
      <path
         d="m 0,0 c -3.981,0 -7.206,3.201 -7.206,7.15 0,3.948 3.225,7.15 7.206,7.15 3.981,0 7.208,-3.202 7.208,-7.15 C 7.208,3.201 3.981,0 0,0"
         id="path8062"
         style="fill:#e6b447;fill-opacity:1;fill-rule:nonzero;stroke:none" />
    </g>
    <g
       transform="matrix(1.25,0,0,-1.25,375.24493,497.70267)"
       id="g8064">
      <path
         d="m 0,0 -5.487,0 c 0,0 -6.615,0.248 -8.883,-7.652 l -5.675,-19.765 c -0.542,-1.849 0.478,-3.261 2.092,-3.724 1.613,-0.464 3.264,0.351 3.688,1.83 l 5.519,19.266 1.505,0.002 -9.574,-33.362 9.011,-10e-4 0.004,-0.007 0,-24.485 c 0,-1.866 1.601,-3.423 3.55,-3.431 1.718,-0.007 3.532,1.737 3.532,3.601 l 0,-0.005 0,24.328 1.443,0 0,-24.328 0,0.005 c 0,-1.864 1.815,-3.608 3.533,-3.601 1.949,0.008 3.548,1.565 3.548,3.431 l 0,24.485 0.006,0.007 9.009,10e-4 -9.572,33.362 1.504,-0.002 5.518,-19.266 c 0.425,-1.479 2.077,-2.294 3.69,-1.83 1.613,0.463 2.633,1.875 2.092,3.724 L 14.376,-7.652 C 12.11,0.248 5.494,0 5.494,0 L 0,0 z"
         id="path8066"
         style="fill:#e6b447;fill-opacity:1;fill-rule:nonzero;stroke:none" />
    </g>
  </g>
</svg>
